<?xml version="1.0" encoding="UTF-8"?>
<svg width="256px" height="256px" viewBox="0 0 256 256" version="1.1" xmlns="http://www.w3.org/2000/svg" xmlns:xlink="http://www.w3.org/1999/xlink">
    <title>icon</title>
    <g id="icon" stroke="none" fill="none" transform="translate(0, -0)" fill-rule="evenodd" stroke-width="1">
        <g id="Group" fill="#6600FF">
            <path d="M217.6,0 C238.656,0 256,17.344 256,38.4 L256,217.6 C256,238.656 238.656,256 217.6,256 L38.4,256 C17.344,256 0,238.656 0,217.6 L0,38.4 C0,17.344 17.344,0 38.4,0 Z M217.6,25.6 L127.8,25.6 L127.800493,76.8003824 C99.6815106,76.9082044 76.8,99.8062087 76.8,127.999949 L76.801,127.8 L25.6,127.8 L25.6,217.6 C25.6,224.9088 31.0912,230.4 38.4,230.4 L128.2,230.4 L128.200051,179.199616 C156.368578,179.091399 179.2,156.143388 179.2,127.999949 L179.198,128.199 L230.4,128.2 L230.4,38.4 C230.4,31.0912 224.9088,25.6 217.6,25.6 Z" id="Combined-Shape" fill-rule="nonzero"></path>
            <g transform="translate(76.8, 76.8)" id="-path" stroke="#6600FF" stroke-width="3.84">
                <path d="M66.9612597,65.1041517 C63.196671,67.1622365 58.7294344,69.5215296 51.1999486,69.5215296 C43.6203471,69.5215296 39.203072,67.1118638 35.3882134,65.1041517 C34.3340874,64.6024807 33.0791902,65.1545244 33.0791902,66.409216 C33.0791902,69.8227378 40.3575836,77.050707 51.1999486,77.050707 C61.9918381,77.050707 69.2706941,69.8227378 69.2706941,66.409216 C69.2706941,65.1545244 68.0658612,64.6024807 66.9612597,65.1041517 Z"></path>
                <path d="M29.7662596,39.4038946 C29.7662596,43.5199614 32.5772108,46.4815167 35.8399743,46.4815167 C39.1529049,46.4815167 42.0642417,43.5199614 42.0642417,39.4038946 C42.0642417,35.1873908 39.1529049,32.2258355 35.8399743,32.2258355 C32.5772108,32.2258355 29.7662596,35.1873908 29.7662596,39.4038946 Z"></path>
                <path d="M60.4359383,39.4038946 C60.4359383,43.5199614 63.2470437,46.4815167 66.5099614,46.4815167 C69.8227378,46.4815167 72.7340746,43.5199614 72.7340746,39.4038946 C72.7340746,35.1873908 69.8227378,32.2258355 66.5099614,32.2258355 C63.2470437,32.2258355 60.4359383,35.1873908 60.4359383,39.4038946 Z"></path>
            </g>
        </g>
    </g>
</svg>